<?xml version="1.0" encoding="utf-8"?>
<!-- Generator: Adobe Illustrator 24.1.1, SVG Export Plug-In . SVG Version: 6.00 Build 0)  -->
<svg version="1.1" id="Layer_1" xmlns="http://www.w3.org/2000/svg" xmlns:xlink="http://www.w3.org/1999/xlink" x="0px" y="0px"
	 viewBox="0 0 1024 1024" style="enable-background:new 0 0 1024 1024;" xml:space="preserve">
<style type="text/css">
	.st0{fill:#F2F2F2;}
</style>
<g>
	<path class="st0" d="M589.15,271.88l-41.86,0v0l-1.42-9.1c-4.13-26.59-23.28-45.84-45.57-45.84h0L211,216.43
		c-7.34,0.21-13.04,0.24-17.63,0.17c-16.65-0.26-30.33,15.89-30.64,36.1l-0.23,14.67c-0.28,18.42,11.94,33.54,27.12,33.54l217.26,0
		c13.37,0,24.21,10.44,24.21,23.33v0c0,12.88-10.84,23.33-24.21,23.33h-244.9h0c-25.54,0-46.29-24.99-46.49-55.98l-0.5-78.79v0
		c0-26.34,17.59-47.69,39.3-47.69l346.75,4.17C548.15,169.84,586.75,214.79,589.15,271.88L589.15,271.88z"/>
</g>
<g>
	<path class="st0" d="M461.85,273.95l41.86,0l0,0l1.42,9.1c4.13,26.59,23.28,45.84,45.57,45.84h0L840,329.4
		c7.34-0.21,13.04-0.24,17.63-0.17c16.65,0.26,30.33-15.89,30.64-36.1l0.23-14.67c0.28-18.42-11.94-33.54-27.12-33.54H644.11
		c-13.37,0-24.21-10.44-24.21-23.33v0c0-12.88,10.84-23.33,24.21-23.33h244.9l0,0c25.54,0,46.29,24.99,46.49,55.98l0.5,78.79v0
		c0,26.34-17.59,47.69-39.3,47.69l-346.75-4.17C502.85,375.99,464.25,331.04,461.85,273.95L461.85,273.95z"/>
</g>
<rect x="474.68" y="578.69" class="st0" width="93.2" height="317.67"/>
<polygon class="st0" points="519.76,435.52 365.98,641.37 673.53,641.37 "/>
</svg>
